<svg width="23" height="23" fill="none" xmlns="http://www.w3.org/2000/svg"><path d="M11.5 21.72c-.328 0-.643-.118-.89-.334a267.11 267.11 0 00-2.614-2.25l-.004-.003c-2.318-1.974-4.319-3.68-5.71-5.36C.724 11.897 0 10.116 0 8.17c0-1.89.648-3.633 1.825-4.91a6.185 6.185 0 014.6-2.002c1.328 0 2.544.42 3.614 1.247.54.418 1.03.93 1.461 1.526a7.394 7.394 0 011.461-1.526c1.07-.827 2.286-1.247 3.614-1.247 1.776 0 3.41.711 4.6 2.002C22.352 4.537 23 6.28 23 8.17c0 1.945-.725 3.726-2.281 5.604-1.392 1.68-3.393 3.385-5.71 5.359-.792.675-1.689 1.44-2.62 2.254a1.35 1.35 0 01-.889.333zM6.425 2.605a4.852 4.852 0 00-3.61 1.569C1.868 5.2 1.347 6.619 1.347 8.17c0 1.636.608 3.1 1.971 4.744 1.318 1.59 3.278 3.26 5.547 5.194l.004.004c.794.676 1.693 1.442 2.629 2.26a316.8 316.8 0 012.637-2.264c2.27-1.934 4.23-3.604 5.547-5.194 1.363-1.645 1.97-3.108 1.97-4.744 0-1.55-.52-2.97-1.467-3.996a4.852 4.852 0 00-3.61-1.569 4.47 4.47 0 00-2.79.966c-.738.571-1.253 1.294-1.555 1.799a.844.844 0 01-.73.415.844.844 0 01-.73-.415c-.302-.505-.816-1.228-1.555-1.8a4.468 4.468 0 00-2.79-.965z" fill="#fff"/></svg>