<svg width="23" height="23" fill="none" xmlns="http://www.w3.org/2000/svg"><g clip-path="url(#clip0)" fill="#fff"><path d="M19.563 0H3.438a.75.75 0 00-.75.75v21.5c0 .414.335.75.75.75h16.125a.75.75 0 00.75-.75V.75a.75.75 0 00-.75-.75zM9.58 1.5h3.84v.965H9.58V1.5zm9.232 20H4.188v-20h3.894v1.715c0 .414.335.75.75.75h5.339a.75.75 0 00.75-.75V1.5h3.893v20z"/><path d="M15.8 7.131H7.2a.75.75 0 000 1.5h8.6a.75.75 0 000-1.5zm0 4.851H7.2a.75.75 0 000 1.5h8.6a.75.75 0 000-1.5zm0 4.852H7.2a.75.75 0 000 1.5h8.6a.75.75 0 000-1.5z"/></g><defs><clipPath id="clip0"><path fill="#fff" d="M0 0h23v23H0z"/></clipPath></defs></svg>