<svg width="13" height="13" fill="none" xmlns="http://www.w3.org/2000/svg"><path fill-rule="evenodd" clip-rule="evenodd" d="M12.777 12.778a.765.765 0 01-1.078 0l-2.493-2.513a5.66 5.66 0 01-3.471 1.199A5.737 5.737 0 01.437 7.926 5.73 5.73 0 014.616.11a5.737 5.737 0 015.887 2.437c.63.943.967 2.051.967 3.185a5.673 5.673 0 01-1.186 3.454l2.493 2.513a.764.764 0 010 1.079zM5.735 1.528A4.207 4.207 0 001.61 6.553a4.203 4.203 0 005.734 3.063A4.205 4.205 0 009.94 5.732a4.202 4.202 0 00-4.205-4.203z" fill="#999"/></svg>