<svg width="23" height="23" fill="none" xmlns="http://www.w3.org/2000/svg"><path d="M21.555 22.268L20.835.651A.674.674 0 0020.16 0H2.839a.674.674 0 00-.674.651l-.721 21.653a.674.674 0 00.673.696h18.766a.674.674 0 00.672-.732zm-18.741-.616L3.49 1.348h16.018l.677 20.304H2.814z" fill="#fff"/><path d="M15.83 4.33a.674.674 0 00-.674.674A3.66 3.66 0 0111.5 8.661a3.66 3.66 0 01-3.656-3.657.674.674 0 00-1.348 0A5.01 5.01 0 0011.5 10.01a5.01 5.01 0 005.005-5.005.674.674 0 00-.674-.673z" fill="#fff"/></svg>