<svg width="23" height="23" fill="none" xmlns="http://www.w3.org/2000/svg"><path fill-rule="evenodd" clip-rule="evenodd" d="M17.787 19.277A9.959 9.959 0 0111.5 21.5a9.958 9.958 0 01-6.287-2.223 6.337 6.337 0 016.287-5.605 6.337 6.337 0 016.287 5.605zm1.026-.956a7.451 7.451 0 00-2.01-3.624 7.472 7.472 0 00-2.85-1.788A4.334 4.334 0 0011.5 5a4.334 4.334 0 00-2.453 7.909 7.471 7.471 0 00-2.85 1.788 7.45 7.45 0 00-2.01 3.624A9.965 9.965 0 011.5 11.5c0-5.523 4.477-10 10-10s10 4.477 10 10a9.965 9.965 0 01-2.688 6.821zM23 11.5C23 17.851 17.851 23 11.5 23S0 17.851 0 11.5 5.149 0 11.5 0 23 5.149 23 11.5zM8.336 9.336A3.168 3.168 0 0011.5 12.5a3.168 3.168 0 003.164-3.164A3.168 3.168 0 0011.5 6.172a3.168 3.168 0 00-3.164 3.164z" fill="#fff"/></svg>